<svg height="472pt" viewBox="-60 0 472 472" width="472pt" xmlns="http://www.w3.org/2000/svg"><path d="m320 160c0 88.367188-71.632812 160-160 160s-160-71.632812-160-160 71.632812-160 160-160 160 71.632812 160 160zm0 0" fill="#ffcc5c"/><path d="m208 128v-8c-.785156-18.386719-16.273438-32.6875-34.664062-32h-5.335938v-16h-16v16h-5.335938c-18.390624-.6875-33.878906 13.613281-34.664062 32v16c.785156 18.386719 16.273438 32.6875 34.664062 32h5.335938v48h-5.335938c-9.550781.667969-17.863281-6.460938-18.664062-16v-8h-16v8c.785156 18.386719 16.273438 32.6875 34.664062 32h5.335938v16h16v-16h5.335938c18.390624.6875 33.878906-13.613281 34.664062-32v-16c-.785156-18.386719-16.273438-32.6875-34.664062-32h-5.335938v-48h5.335938c9.550781-.667969 17.863281 6.460938 18.664062 16v8zm-34.664062 40c9.550781-.667969 17.863281 6.460938 18.664062 16v16c-.800781 9.539062-9.113281 16.667969-18.664062 16h-5.335938v-48zm-21.335938-16h-5.335938c-9.550781.667969-17.863281-6.460938-18.664062-16v-16c.800781-9.539062 9.113281-16.667969 18.664062-16h5.335938zm0 0" fill="#633e19"/><path d="m320 368c.027344-8.824219 7.175781-15.972656 16-16 8.824219.027344 15.972656 7.175781 16 16v72l-16 24v8h-96v-8l-16-24v-192c.027344-8.824219 7.175781-15.972656 16-16 8.824219.027344 15.972656 7.175781 16 16v88c.027344-8.824219 7.175781-15.972656 16-16 8.824219.027344 15.972656 7.175781 16 16v16c.027344-8.824219 7.175781-15.972656 16-16 8.824219.027344 15.972656 7.175781 16 16zm0 0" fill="#c69c6d"/></svg>